<svg xmlns="http://www.w3.org/2000/svg" viewBox="0 0 256 256" role="img" aria-label="Workbench">
  <defs>
    <linearGradient id="tile" x1="42" y1="28" x2="218" y2="226" gradientUnits="userSpaceOnUse">
      <stop offset="0" stop-color="#11a79c"/>
      <stop offset="1" stop-color="#08796f"/>
    </linearGradient>
    <linearGradient id="panel" x1="80" y1="65" x2="184" y2="196" gradientUnits="userSpaceOnUse">
      <stop offset="0" stop-color="#ffffff"/>
      <stop offset="1" stop-color="#e7fbf8"/>
    </linearGradient>
  </defs>
  <rect width="256" height="256" rx="58" fill="#122023"/>
  <rect x="20" y="20" width="216" height="216" rx="46" fill="url(#tile)"/>
  <path d="M79 82c0-12 10-22 22-22h54c12 0 22 10 22 22v14h-25V86c0-4-3-7-7-7h-34c-4 0-7 3-7 7v10H79V82Z" fill="#122023" opacity=".9"/>
  <path d="M63 99h130c11 0 20 9 20 20v65c0 11-9 20-20 20H63c-11 0-20-9-20-20v-65c0-11 9-20 20-20Z" fill="#122023" opacity=".18"/>
  <path d="M60 91h136c11 0 20 9 20 20v68c0 11-9 20-20 20H60c-11 0-20-9-20-20v-68c0-11 9-20 20-20Z" fill="url(#panel)"/>
  <path d="M40 125h176v25H40v-25Z" fill="#122023" opacity=".12"/>
  <rect x="111" y="115" width="34" height="47" rx="10" fill="#0f8f84"/>
  <rect x="118" y="123" width="20" height="20" rx="5" fill="#e7fbf8"/>
  <path d="M76 168h104" stroke="#122023" stroke-width="12" stroke-linecap="round" opacity=".16"/>
  <path d="M76 179h73" stroke="#122023" stroke-width="10" stroke-linecap="round" opacity=".12"/>
</svg>
